<?xml version="1.0" encoding="UTF-8" standalone="no"?>
<svg
   xmlns:dc="http://purl.org/dc/elements/1.1/"
   xmlns:cc="http://creativecommons.org/ns#"
   xmlns:rdf="http://www.w3.org/1999/02/22-rdf-syntax-ns#"
   xmlns:svg="http://www.w3.org/2000/svg"
   xmlns="http://www.w3.org/2000/svg"
   xmlns:sodipodi="http://sodipodi.sourceforge.net/DTD/sodipodi-0.dtd"
   xmlns:inkscape="http://www.inkscape.org/namespaces/inkscape"
   width="842"
   height="1e3"
   version="1.1"
   id="svg4"
   sodipodi:docname="Apple_logo_black.svg"
   inkscape:version="1.0.1 (3bc2e813f5, 2020-09-07)">
  <metadata
     id="metadata10">
    <rdf:RDF>
      <cc:Work
         rdf:about="">
        <dc:format>image/svg+xml</dc:format>
        <dc:type
           rdf:resource="http://purl.org/dc/dcmitype/StillImage" />
      </cc:Work>
    </rdf:RDF>
  </metadata>
  <defs
     id="defs8" />
  <sodipodi:namedview
     pagecolor="#ffffff"
     bordercolor="#666666"
     borderopacity="1"
     objecttolerance="10"
     gridtolerance="10"
     guidetolerance="10"
     inkscape:pageopacity="0"
     inkscape:pageshadow="2"
     inkscape:window-width="1920"
     inkscape:window-height="1001"
     id="namedview6"
     showgrid="false"
     inkscape:zoom="0.59962655"
     inkscape:cx="172.78405"
     inkscape:cy="501.91521"
     inkscape:window-x="-9"
     inkscape:window-y="1341"
     inkscape:window-maximized="1"
     inkscape:current-layer="svg4" />
  <path
     d="M702 960c-54.2 52.6-114 44.4-171 19.6-60.6-25.3-116-26.9-180 0-79.7 34.4-122 24.4-170-19.6-271-279-231-704 77-720 74.7 4 127 41.3 171 44.4 65.4-13.3 128-51.4 198-46.4 84.1 6.8 147 40 189 99.7-173 104-132 332 26.9 396-31.8 83.5-72.6 166-141 227zM423 237C414.9 113 515.4 11 631 1c15.9 143-130 250-208 236z"
     id="path2"
     style="stroke:#ea3100;stroke-opacity:1;fill:#ea3100;fill-opacity:1" />
</svg>
